<svg width="24" height="24" viewBox="0 0 24 24" fill="none" xmlns="http://www.w3.org/2000/svg">
<path fill-rule="evenodd" clip-rule="evenodd" d="M14.9649 14.2544H15.7549L20.7449 19.2544L19.2549 20.7444L14.2549 15.7544V14.9644L13.9849 14.6844C12.8449 15.6644 11.3649 16.2544 9.75488 16.2544C6.16488 16.2544 3.25488 13.3444 3.25488 9.7544C3.25488 6.16439 6.16488 3.25439 9.75488 3.25439C13.3449 3.25439 16.2549 6.16439 16.2549 9.7544C16.2549 11.3644 15.6649 12.8444 14.6849 13.9844L14.9649 14.2544ZM5.25488 9.75439C5.25488 12.2444 7.26488 14.2544 9.75488 14.2544C12.2449 14.2544 14.2549 12.2444 14.2549 9.75439C14.2549 7.26439 12.2449 5.25439 9.75488 5.25439C7.26488 5.25439 5.25488 7.26439 5.25488 9.75439Z" fill="#9CA1A0"/>
</svg>
